<?xml version="1.0" standalone="no"?>
<!DOCTYPE svg PUBLIC "-//W3C//DTD SVG 20010904//EN"
 "http://www.w3.org/TR/2001/REC-SVG-20010904/DTD/svg10.dtd">
<svg version="1.0" xmlns="http://www.w3.org/2000/svg"
 width="237.000000pt" height="269.000000pt" viewBox="0 0 237.000000 269.000000"
 preserveAspectRatio="xMidYMid meet">

<g transform="translate(0.000000,269.000000) scale(0.100000,-0.100000)"
fill="#000000" stroke="none">
<path d="M1112 2239 c-48 -9 -96 -35 -129 -71 -60 -64 -80 -184 -44 -263 22
-49 101 -121 142 -130 35 -8 39 -35 5 -35 -14 0 -31 -7 -40 -15 -16 -17 -156
-22 -156 -6 0 5 -13 14 -29 21 -24 9 -35 9 -58 -2 -83 -40 -27 -163 59 -127
15 6 28 15 28 20 0 16 140 11 156 -6 9 -8 27 -15 41 -15 l25 0 -6 -172 c-13
-319 -34 -413 -107 -486 -52 -53 -100 -74 -179 -80 -49 -3 -79 1 -123 16 -66
24 -147 80 -179 124 l-22 31 28 -7 c50 -12 47 5 -12 72 -33 37 -70 84 -84 105
-14 21 -28 35 -31 30 -23 -36 -37 -276 -17 -288 5 -3 18 8 29 25 l19 31 21
-34 c36 -59 162 -170 236 -208 39 -20 117 -57 175 -82 138 -60 189 -89 250
-144 l51 -46 42 40 c59 57 106 84 272 157 80 35 166 76 192 92 56 32 175 144
205 192 l20 33 19 -31 c11 -17 24 -28 29 -25 20 12 6 252 -17 288 -3 5 -17 -9
-31 -30 -14 -21 -51 -68 -84 -105 -58 -67 -62 -86 -12 -74 24 6 25 6 9 -18
-27 -41 -119 -105 -181 -127 -151 -54 -311 16 -364 158 -24 66 -37 172 -45
391 l-7 172 31 0 c19 0 34 6 37 15 5 11 24 15 80 15 41 0 74 -4 74 -9 0 -5 13
-14 29 -21 24 -9 35 -9 58 2 83 40 27 163 -59 127 -15 -6 -28 -15 -28 -20 0
-16 -140 -11 -156 6 -9 8 -26 15 -40 15 -34 0 -30 27 5 35 41 9 120 81 142
130 26 57 24 138 -5 200 -47 102 -151 155 -264 134z m144 -38 c75 -34 125
-116 123 -206 l0 -40 -15 55 c-28 105 -110 183 -210 199 l-49 9 55 1 c34 0 71
-6 96 -18z m-46 -86 c68 -35 91 -116 50 -182 -23 -38 -30 -40 -53 -13 -22 26
-72 26 -94 1 -9 -11 -22 -17 -30 -14 -22 8 -43 58 -43 100 0 45 20 77 64 104
37 23 67 24 106 4z m-18 -445 c-4 -304 11 -542 40 -617 29 -80 75 -133 143
-168 51 -26 69 -30 139 -30 45 0 95 3 111 7 28 7 28 6 -5 -9 -23 -11 -61 -17
-110 -17 -152 0 -268 86 -310 229 -8 25 -15 173 -20 400 -4 198 -11 382 -15
408 -7 44 -6 49 11 45 17 -3 18 -16 16 -248z m342 16 c7 -18 6 -30 -2 -38 -9
-9 -12 -6 -12 13 0 30 -17 49 -44 49 -16 0 -18 2 -7 9 22 14 55 -3 65 -33z
m-1060 -565 c25 -30 43 -57 40 -60 -6 -6 -78 71 -96 103 -18 33 8 13 56 -43z
m1459 -28 c3 -35 1 -66 -4 -69 -5 -3 -9 17 -9 44 0 27 -3 65 -6 83 -4 23 -2
29 4 19 5 -8 12 -43 15 -77z m-827 -36 c-18 -63 -61 -125 -108 -158 -29 -20
-27 -17 10 20 51 49 89 125 99 196 6 37 9 43 11 22 2 -15 -4 -51 -12 -80z
m133 -246 c51 -36 112 -53 195 -54 l78 -1 -101 -27 c-129 -34 -204 -71 -230
-112 l-21 -32 1 170 0 170 24 -47 c14 -25 38 -56 54 -67z"/>
</g>
</svg>
