<?xml version="1.0" standalone="no"?>
<!DOCTYPE svg PUBLIC "-//W3C//DTD SVG 20010904//EN"
 "http://www.w3.org/TR/2001/REC-SVG-20010904/DTD/svg10.dtd">
<svg version="1.0" xmlns="http://www.w3.org/2000/svg"
 width="257.000000pt" height="230.000000pt" viewBox="0 0 257.000000 230.000000"
 preserveAspectRatio="xMidYMid meet">

<g transform="translate(0.000000,230.000000) scale(0.100000,-0.100000)"
fill="#000000" stroke="none">
<path d="M1146 1914 c-24 -23 -22 -126 2 -147 42 -38 72 -7 72 73 0 59 -15 90
-45 90 -7 0 -21 -7 -29 -16z"/>
<path d="M1763 1765 c-24 -17 -31 -67 -14 -94 5 -8 0 -38 -12 -77 l-21 -64
-58 0 c-61 0 -66 -4 -44 -32 10 -14 28 -18 79 -18 l65 0 26 78 c21 61 32 80
56 94 39 22 49 62 23 96 -24 32 -68 39 -100 17z"/>
<path d="M672 1718 c-22 -22 -13 -43 38 -93 45 -45 51 -48 75 -37 38 17 32 51
-18 100 -43 42 -73 52 -95 30z"/>
<path d="M1029 1617 c-82 -35 -120 -60 -178 -122 -165 -174 -157 -436 20 -620
72 -76 101 -137 107 -232 3 -40 10 -77 16 -83 13 -10 348 -16 364 -6 5 3 12
41 15 84 7 103 29 153 110 241 113 122 151 235 129 381 -22 155 -108 271 -250
338 -70 33 -86 37 -177 40 -87 2 -107 0 -156 -21z m212 -151 c13 -54 31 -63
76 -36 43 25 51 25 80 -2 28 -26 29 -41 3 -83 -27 -43 -18 -61 36 -74 l45 -12
-3 -47 c-3 -45 -5 -47 -41 -57 -54 -15 -62 -34 -34 -84 l22 -40 -31 -32 -32
-31 -40 22 c-22 13 -47 20 -55 17 -7 -3 -20 -26 -27 -52 l-13 -46 -46 3 c-44
3 -45 4 -56 47 -6 25 -17 47 -24 49 -8 3 -34 -6 -58 -19 l-43 -24 -31 32 -32
31 22 37 c33 56 28 72 -26 87 l-48 14 0 44 c0 44 1 45 45 60 53 19 60 37 29
86 l-22 36 32 31 31 32 45 -24 c37 -19 47 -21 60 -11 8 7 15 18 15 26 0 7 4
24 10 38 8 23 15 26 55 26 45 0 45 0 56 -44z"/>
<path d="M1144 1310 c-36 -14 -64 -59 -64 -102 0 -105 150 -137 195 -43 19 41
19 58 0 95 -25 48 -82 70 -131 50z"/>
<path d="M1970 1550 c-12 -12 -20 -33 -20 -52 0 -24 -10 -43 -42 -75 l-42 -43
-97 0 -96 0 5 -25 c4 -25 5 -25 111 -25 l107 0 49 50 c29 29 58 50 71 50 33 0
74 37 74 69 0 65 -74 97 -120 51z"/>
<path d="M2115 1260 c-17 -19 -31 -20 -217 -20 l-198 0 0 -30 0 -30 196 0
c181 0 198 -2 221 -20 14 -11 36 -20 49 -20 55 0 87 86 46 123 -25 23 -75 21
-97 -3z"/>
<path d="M482 1248 c-18 -18 -14 -56 7 -68 11 -5 41 -10 66 -10 58 0 85 14 85
43 0 36 -19 47 -85 47 -34 0 -66 -5 -73 -12z"/>
<path d="M1690 1086 c0 -8 -3 -21 -6 -30 -5 -14 6 -16 87 -16 l93 0 43 -42
c32 -32 43 -50 43 -73 0 -63 77 -98 120 -55 41 41 8 120 -51 120 -17 0 -42 18
-79 55 l-54 55 -98 0 c-78 0 -98 -3 -98 -14z"/>
<path d="M1636 928 c-24 -34 -20 -38 33 -38 l49 0 21 -61 c15 -44 18 -67 11
-79 -6 -11 -10 -32 -10 -49 0 -61 84 -81 123 -29 26 34 16 74 -23 96 -25 14
-35 32 -57 100 l-27 82 -52 0 c-43 0 -56 -4 -68 -22z"/>
<path d="M704 806 c-47 -47 -53 -66 -28 -90 23 -24 40 -20 84 20 44 40 59 76
40 99 -21 26 -51 17 -96 -29z"/>
<path d="M996 478 c-20 -29 -20 -34 4 -58 18 -18 33 -20 175 -20 142 0 157 2
175 20 24 24 25 43 4 64 -13 13 -44 16 -179 16 -158 0 -164 -1 -179 -22z"/>
<path d="M1080 356 c0 -28 13 -47 41 -61 66 -35 149 -1 149 61 0 11 -20 14
-95 14 -75 0 -95 -3 -95 -14z"/>
</g>
</svg>
